<svg xmlns="http://www.w3.org/2000/svg" version="1.1" xmlns:xlink="http://www.w3.org/1999/xlink" xmlns:svgjs="http://svgjs.com/svgjs" width="1440" height="560" preserveAspectRatio="none" viewBox="0 0 1440 560"><g mask="url(&quot;#SvgjsMask1018&quot;)" fill="none"><rect width="1440" height="560" x="0" y="0" fill="rgba(0, 146, 70, 0.8)"></rect><path d="M-44.55 398.92L-44.55 398.92" stroke="rgba(254, 255, 255, 1)" stroke-width="1.5"></path><path d="M-44.55 398.92L-78.45 509.87" stroke="rgba(254, 255, 255, 1)" stroke-width="1.5"></path><path d="M-44.55 398.92L83.73 394.47" stroke="rgba(254, 255, 255, 1)" stroke-width="1.5"></path><path d="M-44.55 398.92L69.31 522.55" stroke="rgba(254, 255, 255, 1)" stroke-width="1.5"></path><path d="M-44.55 398.92L-70.67 638.68" stroke="rgba(254, 255, 255, 1)" stroke-width="1.5"></path><path d="M-78.45 509.87L-78.45 509.87" stroke="rgba(254, 255, 255, 1)" stroke-width="1.5"></path><path d="M-78.45 509.87L-70.67 638.68" stroke="rgba(254, 255, 255, 1)" stroke-width="1.5"></path><path d="M-78.45 509.87L69.31 522.55" stroke="rgba(254, 255, 255, 1)" stroke-width="1.5"></path><path d="M-70.67 638.68L-70.67 638.68" stroke="rgba(254, 255, 255, 1)" stroke-width="1.5"></path><path d="M-70.67 638.68L75.74 665.05" stroke="rgba(254, 255, 255, 1)" stroke-width="1.5"></path><path d="M-70.67 638.68L69.31 522.55" stroke="rgba(254, 255, 255, 1)" stroke-width="1.5"></path><path d="M-70.67 638.68L192.13 674.28" stroke="rgba(254, 255, 255, 1)" stroke-width="1.5"></path><path d="M-70.67 638.68L191.38 525.09" stroke="rgba(254, 255, 255, 1)" stroke-width="1.5"></path><path d="M83.73 394.47L83.73 394.47" stroke="rgba(254, 255, 255, 1)" stroke-width="1.5"></path><path d="M83.73 394.47L196.51 342.96" stroke="rgba(254, 255, 255, 1)" stroke-width="1.5"></path><path d="M83.73 394.47L69.31 522.55" stroke="rgba(254, 255, 255, 1)" stroke-width="1.5"></path><path d="M83.73 394.47L191.38 525.09" stroke="rgba(254, 255, 255, 1)" stroke-width="1.5"></path><path d="M83.73 394.47L-78.45 509.87" stroke="rgba(254, 255, 255, 1)" stroke-width="1.5"></path><path d="M69.31 522.55L69.31 522.55" stroke="rgba(254, 255, 255, 1)" stroke-width="1.5"></path><path d="M69.31 522.55L191.38 525.09" stroke="rgba(254, 255, 255, 1)" stroke-width="1.5"></path><path d="M75.74 665.05L75.74 665.05" stroke="rgba(254, 255, 255, 1)" stroke-width="1.5"></path><path d="M75.74 665.05L192.13 674.28" stroke="rgba(254, 255, 255, 1)" stroke-width="1.5"></path><path d="M75.74 665.05L69.31 522.55" stroke="rgba(254, 255, 255, 1)" stroke-width="1.5"></path><path d="M196.51 342.96L196.51 342.96" stroke="rgba(254, 255, 255, 1)" stroke-width="1.5"></path><path d="M196.51 342.96L191.38 525.09" stroke="rgba(254, 255, 255, 1)" stroke-width="1.5"></path><path d="M196.51 342.96L69.31 522.55" stroke="rgba(254, 255, 255, 1)" stroke-width="1.5"></path><path d="M196.51 342.96L-44.55 398.92" stroke="rgba(254, 255, 255, 1)" stroke-width="1.5"></path><path d="M196.51 342.96L397.56 543.15" stroke="rgba(254, 255, 255, 1)" stroke-width="1.5"></path><path d="M191.38 525.09L191.38 525.09" stroke="rgba(254, 255, 255, 1)" stroke-width="1.5"></path><path d="M191.38 525.09L192.13 674.28" stroke="rgba(254, 255, 255, 1)" stroke-width="1.5"></path><path d="M192.13 674.28L192.13 674.28" stroke="rgba(254, 255, 255, 1)" stroke-width="1.5"></path><path d="M192.13 674.28L351.2 696.69" stroke="rgba(254, 255, 255, 1)" stroke-width="1.5"></path><path d="M192.13 674.28L69.31 522.55" stroke="rgba(254, 255, 255, 1)" stroke-width="1.5"></path><path d="M192.13 674.28L397.56 543.15" stroke="rgba(254, 255, 255, 1)" stroke-width="1.5"></path><path d="M397.56 543.15L397.56 543.15" stroke="rgba(254, 255, 255, 1)" stroke-width="1.5"></path><path d="M397.56 543.15L524.41 528.62" stroke="rgba(254, 255, 255, 1)" stroke-width="1.5"></path><path d="M351.2 696.69L351.2 696.69" stroke="rgba(254, 255, 255, 1)" stroke-width="1.5"></path><path d="M351.2 696.69L397.56 543.15" stroke="rgba(254, 255, 255, 1)" stroke-width="1.5"></path><path d="M507.03 358.76L507.03 358.76" stroke="rgba(254, 255, 255, 1)" stroke-width="1.5"></path><path d="M507.03 358.76L657.05 403.34" stroke="rgba(254, 255, 255, 1)" stroke-width="1.5"></path><path d="M507.03 358.76L524.41 528.62" stroke="rgba(254, 255, 255, 1)" stroke-width="1.5"></path><path d="M507.03 358.76L397.56 543.15" stroke="rgba(254, 255, 255, 1)" stroke-width="1.5"></path><path d="M524.41 528.62L524.41 528.62" stroke="rgba(254, 255, 255, 1)" stroke-width="1.5"></path><path d="M524.41 528.62L550.45 652.21" stroke="rgba(254, 255, 255, 1)" stroke-width="1.5"></path><path d="M524.41 528.62L670.12 520.09" stroke="rgba(254, 255, 255, 1)" stroke-width="1.5"></path><path d="M524.41 528.62L657.05 403.34" stroke="rgba(254, 255, 255, 1)" stroke-width="1.5"></path><path d="M524.41 528.62L351.2 696.69" stroke="rgba(254, 255, 255, 1)" stroke-width="1.5"></path><path d="M550.45 652.21L550.45 652.21" stroke="rgba(254, 255, 255, 1)" stroke-width="1.5"></path><path d="M550.45 652.21L670.12 520.09" stroke="rgba(254, 255, 255, 1)" stroke-width="1.5"></path><path d="M550.45 652.21L397.56 543.15" stroke="rgba(254, 255, 255, 1)" stroke-width="1.5"></path><path d="M550.45 652.21L351.2 696.69" stroke="rgba(254, 255, 255, 1)" stroke-width="1.5"></path><path d="M683.17 221.86L683.17 221.86" stroke="rgba(254, 255, 255, 1)" stroke-width="1.5"></path><path d="M683.17 221.86L804.67 224.61" stroke="rgba(254, 255, 255, 1)" stroke-width="1.5"></path><path d="M683.17 221.86L791.95 355.05" stroke="rgba(254, 255, 255, 1)" stroke-width="1.5"></path><path d="M657.05 403.34L657.05 403.34" stroke="rgba(254, 255, 255, 1)" stroke-width="1.5"></path><path d="M657.05 403.34L670.12 520.09" stroke="rgba(254, 255, 255, 1)" stroke-width="1.5"></path><path d="M657.05 403.34L791.95 355.05" stroke="rgba(254, 255, 255, 1)" stroke-width="1.5"></path><path d="M670.12 520.09L670.12 520.09" stroke="rgba(254, 255, 255, 1)" stroke-width="1.5"></path><path d="M847.93 82.69L847.93 82.69" stroke="rgba(254, 255, 255, 1)" stroke-width="1.5"></path><path d="M847.93 82.69L977.09 51.34" stroke="rgba(254, 255, 255, 1)" stroke-width="1.5"></path><path d="M847.93 82.69L804.67 224.61" stroke="rgba(254, 255, 255, 1)" stroke-width="1.5"></path><path d="M847.93 82.69L976.22 223.52" stroke="rgba(254, 255, 255, 1)" stroke-width="1.5"></path><path d="M847.93 82.69L975.83 -85.76" stroke="rgba(254, 255, 255, 1)" stroke-width="1.5"></path><path d="M847.93 82.69L683.17 221.86" stroke="rgba(254, 255, 255, 1)" stroke-width="1.5"></path><path d="M804.67 224.61L804.67 224.61" stroke="rgba(254, 255, 255, 1)" stroke-width="1.5"></path><path d="M804.67 224.61L791.95 355.05" stroke="rgba(254, 255, 255, 1)" stroke-width="1.5"></path><path d="M804.67 224.61L976.22 223.52" stroke="rgba(254, 255, 255, 1)" stroke-width="1.5"></path><path d="M804.67 224.61L657.05 403.34" stroke="rgba(254, 255, 255, 1)" stroke-width="1.5"></path><path d="M804.67 224.61L977.09 51.34" stroke="rgba(254, 255, 255, 1)" stroke-width="1.5"></path><path d="M791.95 355.05L791.95 355.05" stroke="rgba(254, 255, 255, 1)" stroke-width="1.5"></path><path d="M861.28 536.78L861.28 536.78" stroke="rgba(254, 255, 255, 1)" stroke-width="1.5"></path><path d="M861.28 536.78L982.66 529.42" stroke="rgba(254, 255, 255, 1)" stroke-width="1.5"></path><path d="M861.28 536.78L842.56 699.1" stroke="rgba(254, 255, 255, 1)" stroke-width="1.5"></path><path d="M861.28 536.78L670.12 520.09" stroke="rgba(254, 255, 255, 1)" stroke-width="1.5"></path><path d="M861.28 536.78L791.95 355.05" stroke="rgba(254, 255, 255, 1)" stroke-width="1.5"></path><path d="M842.56 699.1L842.56 699.1" stroke="rgba(254, 255, 255, 1)" stroke-width="1.5"></path><path d="M842.56 699.1L1008.9 683.18" stroke="rgba(254, 255, 255, 1)" stroke-width="1.5"></path><path d="M842.56 699.1L982.66 529.42" stroke="rgba(254, 255, 255, 1)" stroke-width="1.5"></path><path d="M842.56 699.1L670.12 520.09" stroke="rgba(254, 255, 255, 1)" stroke-width="1.5"></path><path d="M842.56 699.1L550.45 652.21" stroke="rgba(254, 255, 255, 1)" stroke-width="1.5"></path><path d="M842.56 699.1L1138.68 644.63" stroke="rgba(254, 255, 255, 1)" stroke-width="1.5"></path><path d="M975.83 -85.76L975.83 -85.76" stroke="rgba(254, 255, 255, 1)" stroke-width="1.5"></path><path d="M975.83 -85.76L977.09 51.34" stroke="rgba(254, 255, 255, 1)" stroke-width="1.5"></path><path d="M975.83 -85.76L1123.92 -47.95" stroke="rgba(254, 255, 255, 1)" stroke-width="1.5"></path><path d="M975.83 -85.76L1095.3 85.03" stroke="rgba(254, 255, 255, 1)" stroke-width="1.5"></path><path d="M977.09 51.34L977.09 51.34" stroke="rgba(254, 255, 255, 1)" stroke-width="1.5"></path><path d="M977.09 51.34L1095.3 85.03" stroke="rgba(254, 255, 255, 1)" stroke-width="1.5"></path><path d="M977.09 51.34L976.22 223.52" stroke="rgba(254, 255, 255, 1)" stroke-width="1.5"></path><path d="M976.22 223.52L976.22 223.52" stroke="rgba(254, 255, 255, 1)" stroke-width="1.5"></path><path d="M976.22 223.52L1094.89 248.26" stroke="rgba(254, 255, 255, 1)" stroke-width="1.5"></path><path d="M976.22 223.52L1095.3 85.03" stroke="rgba(254, 255, 255, 1)" stroke-width="1.5"></path><path d="M976.22 223.52L791.95 355.05" stroke="rgba(254, 255, 255, 1)" stroke-width="1.5"></path><path d="M982.66 529.42L982.66 529.42" stroke="rgba(254, 255, 255, 1)" stroke-width="1.5"></path><path d="M982.66 529.42L1008.9 683.18" stroke="rgba(254, 255, 255, 1)" stroke-width="1.5"></path><path d="M1008.9 683.18L1008.9 683.18" stroke="rgba(254, 255, 255, 1)" stroke-width="1.5"></path><path d="M1008.9 683.18L1138.68 644.63" stroke="rgba(254, 255, 255, 1)" stroke-width="1.5"></path><path d="M1123.92 -47.95L1123.92 -47.95" stroke="rgba(254, 255, 255, 1)" stroke-width="1.5"></path><path d="M1123.92 -47.95L1095.3 85.03" stroke="rgba(254, 255, 255, 1)" stroke-width="1.5"></path><path d="M1095.3 85.03L1095.3 85.03" stroke="rgba(254, 255, 255, 1)" stroke-width="1.5"></path><path d="M1095.3 85.03L1094.89 248.26" stroke="rgba(254, 255, 255, 1)" stroke-width="1.5"></path><path d="M1094.89 248.26L1094.89 248.26" stroke="rgba(254, 255, 255, 1)" stroke-width="1.5"></path><path d="M1094.89 248.26L1146.19 389.98" stroke="rgba(254, 255, 255, 1)" stroke-width="1.5"></path><path d="M1094.89 248.26L1300.35 225.99" stroke="rgba(254, 255, 255, 1)" stroke-width="1.5"></path><path d="M1094.89 248.26L977.09 51.34" stroke="rgba(254, 255, 255, 1)" stroke-width="1.5"></path><path d="M1094.89 248.26L1291.44 384.31" stroke="rgba(254, 255, 255, 1)" stroke-width="1.5"></path><path d="M1146.19 389.98L1146.19 389.98" stroke="rgba(254, 255, 255, 1)" stroke-width="1.5"></path><path d="M1146.19 389.98L1144.79 532.03" stroke="rgba(254, 255, 255, 1)" stroke-width="1.5"></path><path d="M1146.19 389.98L1291.44 384.31" stroke="rgba(254, 255, 255, 1)" stroke-width="1.5"></path><path d="M1144.79 532.03L1144.79 532.03" stroke="rgba(254, 255, 255, 1)" stroke-width="1.5"></path><path d="M1144.79 532.03L1138.68 644.63" stroke="rgba(254, 255, 255, 1)" stroke-width="1.5"></path><path d="M1138.68 644.63L1138.68 644.63" stroke="rgba(254, 255, 255, 1)" stroke-width="1.5"></path><path d="M1138.68 644.63L1285.77 673.47" stroke="rgba(254, 255, 255, 1)" stroke-width="1.5"></path><path d="M1138.68 644.63L982.66 529.42" stroke="rgba(254, 255, 255, 1)" stroke-width="1.5"></path><path d="M1293.09 -47.64L1293.09 -47.64" stroke="rgba(254, 255, 255, 1)" stroke-width="1.5"></path><path d="M1293.09 -47.64L1292.32 77.66" stroke="rgba(254, 255, 255, 1)" stroke-width="1.5"></path><path d="M1293.09 -47.64L1425.74 -94.52" stroke="rgba(254, 255, 255, 1)" stroke-width="1.5"></path><path d="M1293.09 -47.64L1123.92 -47.95" stroke="rgba(254, 255, 255, 1)" stroke-width="1.5"></path><path d="M1293.09 -47.64L1459.22 66.48" stroke="rgba(254, 255, 255, 1)" stroke-width="1.5"></path><path d="M1293.09 -47.64L1095.3 85.03" stroke="rgba(254, 255, 255, 1)" stroke-width="1.5"></path><path d="M1293.09 -47.64L1300.35 225.99" stroke="rgba(254, 255, 255, 1)" stroke-width="1.5"></path><path d="M1292.32 77.66L1292.32 77.66" stroke="rgba(254, 255, 255, 1)" stroke-width="1.5"></path><path d="M1292.32 77.66L1300.35 225.99" stroke="rgba(254, 255, 255, 1)" stroke-width="1.5"></path><path d="M1292.32 77.66L1459.22 66.48" stroke="rgba(254, 255, 255, 1)" stroke-width="1.5"></path><path d="M1292.32 77.66L1095.3 85.03" stroke="rgba(254, 255, 255, 1)" stroke-width="1.5"></path><path d="M1292.32 77.66L1123.92 -47.95" stroke="rgba(254, 255, 255, 1)" stroke-width="1.5"></path><path d="M1292.32 77.66L1425.74 -94.52" stroke="rgba(254, 255, 255, 1)" stroke-width="1.5"></path><path d="M1300.35 225.99L1300.35 225.99" stroke="rgba(254, 255, 255, 1)" stroke-width="1.5"></path><path d="M1300.35 225.99L1291.44 384.31" stroke="rgba(254, 255, 255, 1)" stroke-width="1.5"></path><path d="M1300.35 225.99L1459.77 247.73" stroke="rgba(254, 255, 255, 1)" stroke-width="1.5"></path><path d="M1300.35 225.99L1423.93 387.61" stroke="rgba(254, 255, 255, 1)" stroke-width="1.5"></path><path d="M1300.35 225.99L1146.19 389.98" stroke="rgba(254, 255, 255, 1)" stroke-width="1.5"></path><path d="M1291.44 384.31L1291.44 384.31" stroke="rgba(254, 255, 255, 1)" stroke-width="1.5"></path><path d="M1291.44 384.31L1423.93 387.61" stroke="rgba(254, 255, 255, 1)" stroke-width="1.5"></path><path d="M1291.44 384.31L1293.4 522.43" stroke="rgba(254, 255, 255, 1)" stroke-width="1.5"></path><path d="M1293.4 522.43L1293.4 522.43" stroke="rgba(254, 255, 255, 1)" stroke-width="1.5"></path><path d="M1293.4 522.43L1144.79 532.03" stroke="rgba(254, 255, 255, 1)" stroke-width="1.5"></path><path d="M1285.77 673.47L1285.77 673.47" stroke="rgba(254, 255, 255, 1)" stroke-width="1.5"></path><path d="M1285.77 673.47L1293.4 522.43" stroke="rgba(254, 255, 255, 1)" stroke-width="1.5"></path><path d="M1285.77 673.47L1451.51 703.87" stroke="rgba(254, 255, 255, 1)" stroke-width="1.5"></path><path d="M1285.77 673.47L1144.79 532.03" stroke="rgba(254, 255, 255, 1)" stroke-width="1.5"></path><path d="M1425.74 -94.52L1425.74 -94.52" stroke="rgba(254, 255, 255, 1)" stroke-width="1.5"></path><path d="M1425.74 -94.52L1459.22 66.48" stroke="rgba(254, 255, 255, 1)" stroke-width="1.5"></path><path d="M1425.74 -94.52L1606.8 -43.23" stroke="rgba(254, 255, 255, 1)" stroke-width="1.5"></path><path d="M1459.22 66.48L1459.22 66.48" stroke="rgba(254, 255, 255, 1)" stroke-width="1.5"></path><path d="M1459.22 66.48L1552.2 49.03" stroke="rgba(254, 255, 255, 1)" stroke-width="1.5"></path><path d="M1459.22 66.48L1563.3 198.9" stroke="rgba(254, 255, 255, 1)" stroke-width="1.5"></path><path d="M1459.22 66.48L1459.77 247.73" stroke="rgba(254, 255, 255, 1)" stroke-width="1.5"></path><path d="M1459.22 66.48L1606.8 -43.23" stroke="rgba(254, 255, 255, 1)" stroke-width="1.5"></path><path d="M1459.77 247.73L1459.77 247.73" stroke="rgba(254, 255, 255, 1)" stroke-width="1.5"></path><path d="M1459.77 247.73L1563.3 198.9" stroke="rgba(254, 255, 255, 1)" stroke-width="1.5"></path><path d="M1459.77 247.73L1423.93 387.61" stroke="rgba(254, 255, 255, 1)" stroke-width="1.5"></path><path d="M1423.93 387.61L1423.93 387.61" stroke="rgba(254, 255, 255, 1)" stroke-width="1.5"></path><path d="M1423.93 387.61L1587.01 390.29" stroke="rgba(254, 255, 255, 1)" stroke-width="1.5"></path><path d="M1451.51 703.87L1451.51 703.87" stroke="rgba(254, 255, 255, 1)" stroke-width="1.5"></path><path d="M1451.51 703.87L1572.22 681.35" stroke="rgba(254, 255, 255, 1)" stroke-width="1.5"></path><path d="M1606.8 -43.23L1606.8 -43.23" stroke="rgba(254, 255, 255, 1)" stroke-width="1.5"></path><path d="M1606.8 -43.23L1552.2 49.03" stroke="rgba(254, 255, 255, 1)" stroke-width="1.5"></path><path d="M1552.2 49.03L1552.2 49.03" stroke="rgba(254, 255, 255, 1)" stroke-width="1.5"></path><path d="M1552.2 49.03L1563.3 198.9" stroke="rgba(254, 255, 255, 1)" stroke-width="1.5"></path><path d="M1563.3 198.9L1563.3 198.9" stroke="rgba(254, 255, 255, 1)" stroke-width="1.5"></path><path d="M1563.3 198.9L1587.01 390.29" stroke="rgba(254, 255, 255, 1)" stroke-width="1.5"></path><path d="M1563.3 198.9L1423.93 387.61" stroke="rgba(254, 255, 255, 1)" stroke-width="1.5"></path><path d="M1563.3 198.9L1606.8 -43.23" stroke="rgba(254, 255, 255, 1)" stroke-width="1.5"></path><path d="M1587.01 390.29L1587.01 390.29" stroke="rgba(254, 255, 255, 1)" stroke-width="1.5"></path><path d="M1587.01 390.29L1459.77 247.73" stroke="rgba(254, 255, 255, 1)" stroke-width="1.5"></path><path d="M1587.01 390.29L1572.22 681.35" stroke="rgba(254, 255, 255, 1)" stroke-width="1.5"></path><path d="M1572.22 681.35L1572.22 681.35" stroke="rgba(254, 255, 255, 1)" stroke-width="1.5"></path><path d="M1572.22 681.35L1285.77 673.47" stroke="rgba(254, 255, 255, 1)" stroke-width="1.5"></path><path d="M1572.22 681.35L1293.4 522.43" stroke="rgba(254, 255, 255, 1)" stroke-width="1.5"></path><circle r="5" cx="-44.55" cy="398.92" fill="rgba(254, 255, 255, 1)"></circle><circle r="5" cx="-78.45" cy="509.87" fill="rgba(254, 255, 255, 1)"></circle><circle r="5" cx="-70.67" cy="638.68" fill="rgba(254, 255, 255, 1)"></circle><circle r="5" cx="83.73" cy="394.47" fill="rgba(254, 255, 255, 1)"></circle><circle r="5" cx="69.31" cy="522.55" fill="rgba(254, 255, 255, 1)"></circle><circle r="5" cx="75.74" cy="665.05" fill="rgba(254, 255, 255, 1)"></circle><circle r="5" cx="196.51" cy="342.96" fill="rgba(254, 255, 255, 1)"></circle><circle r="5" cx="191.38" cy="525.09" fill="rgba(254, 255, 255, 1)"></circle><circle r="5" cx="192.13" cy="674.28" fill="rgba(254, 255, 255, 1)"></circle><circle r="5" cx="397.56" cy="543.15" fill="rgba(254, 255, 255, 1)"></circle><circle r="5" cx="351.2" cy="696.69" fill="rgba(254, 255, 255, 1)"></circle><circle r="5" cx="507.03" cy="358.76" fill="rgba(254, 255, 255, 1)"></circle><circle r="5" cx="524.41" cy="528.62" fill="rgba(254, 255, 255, 1)"></circle><circle r="5" cx="550.45" cy="652.21" fill="rgba(254, 255, 255, 1)"></circle><circle r="5" cx="683.17" cy="221.86" fill="rgba(254, 255, 255, 1)"></circle><circle r="5" cx="657.05" cy="403.34" fill="rgba(254, 255, 255, 1)"></circle><circle r="5" cx="670.12" cy="520.09" fill="rgba(254, 255, 255, 1)"></circle><circle r="5" cx="847.93" cy="82.69" fill="rgba(254, 255, 255, 1)"></circle><circle r="5" cx="804.67" cy="224.61" fill="rgba(254, 255, 255, 1)"></circle><circle r="5" cx="791.95" cy="355.05" fill="rgba(254, 255, 255, 1)"></circle><circle r="5" cx="861.28" cy="536.78" fill="rgba(254, 255, 255, 1)"></circle><circle r="5" cx="842.56" cy="699.1" fill="rgba(254, 255, 255, 1)"></circle><circle r="5" cx="975.83" cy="-85.76" fill="rgba(254, 255, 255, 1)"></circle><circle r="5" cx="977.09" cy="51.34" fill="rgba(254, 255, 255, 1)"></circle><circle r="5" cx="976.22" cy="223.52" fill="rgba(254, 255, 255, 1)"></circle><circle r="5" cx="982.66" cy="529.42" fill="rgba(254, 255, 255, 1)"></circle><circle r="5" cx="1008.9" cy="683.18" fill="rgba(254, 255, 255, 1)"></circle><circle r="5" cx="1123.92" cy="-47.95" fill="rgba(254, 255, 255, 1)"></circle><circle r="5" cx="1095.3" cy="85.03" fill="rgba(254, 255, 255, 1)"></circle><circle r="5" cx="1094.89" cy="248.26" fill="rgba(254, 255, 255, 1)"></circle><circle r="5" cx="1146.19" cy="389.98" fill="rgba(254, 255, 255, 1)"></circle><circle r="5" cx="1144.79" cy="532.03" fill="rgba(254, 255, 255, 1)"></circle><circle r="5" cx="1138.68" cy="644.63" fill="rgba(254, 255, 255, 1)"></circle><circle r="5" cx="1293.09" cy="-47.64" fill="rgba(254, 255, 255, 1)"></circle><circle r="5" cx="1292.32" cy="77.66" fill="rgba(254, 255, 255, 1)"></circle><circle r="5" cx="1300.35" cy="225.99" fill="rgba(254, 255, 255, 1)"></circle><circle r="5" cx="1291.44" cy="384.31" fill="rgba(254, 255, 255, 1)"></circle><circle r="5" cx="1293.4" cy="522.43" fill="rgba(254, 255, 255, 1)"></circle><circle r="5" cx="1285.77" cy="673.47" fill="rgba(254, 255, 255, 1)"></circle><circle r="5" cx="1425.74" cy="-94.52" fill="rgba(254, 255, 255, 1)"></circle><circle r="5" cx="1459.22" cy="66.48" fill="rgba(254, 255, 255, 1)"></circle><circle r="5" cx="1459.77" cy="247.73" fill="rgba(254, 255, 255, 1)"></circle><circle r="5" cx="1423.93" cy="387.61" fill="rgba(254, 255, 255, 1)"></circle><circle r="5" cx="1451.51" cy="703.87" fill="rgba(254, 255, 255, 1)"></circle><circle r="5" cx="1606.8" cy="-43.23" fill="rgba(254, 255, 255, 1)"></circle><circle r="5" cx="1552.2" cy="49.03" fill="rgba(254, 255, 255, 1)"></circle><circle r="5" cx="1563.3" cy="198.9" fill="rgba(254, 255, 255, 1)"></circle><circle r="5" cx="1587.01" cy="390.29" fill="rgba(254, 255, 255, 1)"></circle><circle r="5" cx="1572.22" cy="681.35" fill="rgba(254, 255, 255, 1)"></circle><path d="M251.9 702.52L251.9 702.52" stroke="hsla(0, 100%, 65%, 0.7)" stroke-width="1.5"></path><path d="M251.9 702.52L388.67 698.15" stroke="hsla(0, 100%, 65%, 0.7)" stroke-width="1.5"></path><path d="M251.9 702.52L188.49 532.84" stroke="hsla(0, 100%, 65%, 0.7)" stroke-width="1.5"></path><path d="M251.9 702.52L41.61 660.4" stroke="hsla(0, 100%, 65%, 0.7)" stroke-width="1.5"></path><path d="M388.67 698.15L388.67 698.15" stroke="hsla(0, 100%, 65%, 0.7)" stroke-width="1.5"></path><path d="M388.67 698.15L534.01 648.71" stroke="hsla(0, 100%, 65%, 0.7)" stroke-width="1.5"></path><path d="M534.01 648.71L534.01 648.71" stroke="hsla(0, 100%, 65%, 0.7)" stroke-width="1.5"></path><path d="M534.01 648.71L681.13 657.31" stroke="hsla(0, 100%, 65%, 0.7)" stroke-width="1.5"></path><path d="M534.01 648.71L400.72 513.78" stroke="hsla(0, 100%, 65%, 0.7)" stroke-width="1.5"></path><path d="M534.01 648.71L711.73 538.24" stroke="hsla(0, 100%, 65%, 0.7)" stroke-width="1.5"></path><path d="M534.01 648.71L795.61 562.4" stroke="hsla(0, 100%, 65%, 0.7)" stroke-width="1.5"></path><path d="M534.01 648.71L251.9 702.52" stroke="hsla(0, 100%, 65%, 0.7)" stroke-width="1.5"></path><path d="M1108.56 220.61L1108.56 220.61" stroke="hsla(0, 100%, 65%, 0.7)" stroke-width="1.5"></path><path d="M1108.56 220.61L1154.57 345.54" stroke="hsla(0, 100%, 65%, 0.7)" stroke-width="1.5"></path><path d="M1108.56 220.61L1243.36 256.03" stroke="hsla(0, 100%, 65%, 0.7)" stroke-width="1.5"></path><path d="M1108.56 220.61L1289.08 341.54" stroke="hsla(0, 100%, 65%, 0.7)" stroke-width="1.5"></path><path d="M1108.56 220.61L1299.65 110.33" stroke="hsla(0, 100%, 65%, 0.7)" stroke-width="1.5"></path><path d="M1108.56 220.61L982.82 407.81" stroke="hsla(0, 100%, 65%, 0.7)" stroke-width="1.5"></path><path d="M1289.08 341.54L1289.08 341.54" stroke="hsla(0, 100%, 65%, 0.7)" stroke-width="1.5"></path><path d="M1289.08 341.54L1243.36 256.03" stroke="hsla(0, 100%, 65%, 0.7)" stroke-width="1.5"></path><path d="M1289.08 341.54L1154.57 345.54" stroke="hsla(0, 100%, 65%, 0.7)" stroke-width="1.5"></path><path d="M1289.08 341.54L1412.46 405.75" stroke="hsla(0, 100%, 65%, 0.7)" stroke-width="1.5"></path><path d="M1289.08 341.54L1288.02 508.11" stroke="hsla(0, 100%, 65%, 0.7)" stroke-width="1.5"></path><path d="M-69.28 559.73L-69.28 559.73" stroke="hsla(0, 100%, 65%, 0.7)" stroke-width="1.5"></path><path d="M-69.28 559.73L68.07 556.01" stroke="hsla(0, 100%, 65%, 0.7)" stroke-width="1.5"></path><path d="M-69.28 559.73L41.61 660.4" stroke="hsla(0, 100%, 65%, 0.7)" stroke-width="1.5"></path><path d="M68.07 556.01L68.07 556.01" stroke="hsla(0, 100%, 65%, 0.7)" stroke-width="1.5"></path><path d="M68.07 556.01L41.61 660.4" stroke="hsla(0, 100%, 65%, 0.7)" stroke-width="1.5"></path><path d="M68.07 556.01L188.49 532.84" stroke="hsla(0, 100%, 65%, 0.7)" stroke-width="1.5"></path><path d="M68.07 556.01L251.9 702.52" stroke="hsla(0, 100%, 65%, 0.7)" stroke-width="1.5"></path><path d="M68.07 556.01L400.72 513.78" stroke="hsla(0, 100%, 65%, 0.7)" stroke-width="1.5"></path><path d="M68.07 556.01L388.67 698.15" stroke="hsla(0, 100%, 65%, 0.7)" stroke-width="1.5"></path><path d="M41.61 660.4L41.61 660.4" stroke="hsla(0, 100%, 65%, 0.7)" stroke-width="1.5"></path><path d="M41.61 660.4L188.49 532.84" stroke="hsla(0, 100%, 65%, 0.7)" stroke-width="1.5"></path><path d="M188.49 532.84L188.49 532.84" stroke="hsla(0, 100%, 65%, 0.7)" stroke-width="1.5"></path><path d="M188.49 532.84L400.72 513.78" stroke="hsla(0, 100%, 65%, 0.7)" stroke-width="1.5"></path><path d="M188.49 532.84L-69.28 559.73" stroke="hsla(0, 100%, 65%, 0.7)" stroke-width="1.5"></path><path d="M188.49 532.84L388.67 698.15" stroke="hsla(0, 100%, 65%, 0.7)" stroke-width="1.5"></path><path d="M400.72 513.78L400.72 513.78" stroke="hsla(0, 100%, 65%, 0.7)" stroke-width="1.5"></path><path d="M400.72 513.78L388.67 698.15" stroke="hsla(0, 100%, 65%, 0.7)" stroke-width="1.5"></path><path d="M400.72 513.78L251.9 702.52" stroke="hsla(0, 100%, 65%, 0.7)" stroke-width="1.5"></path><path d="M400.72 513.78L711.73 538.24" stroke="hsla(0, 100%, 65%, 0.7)" stroke-width="1.5"></path><path d="M400.72 513.78L681.13 657.31" stroke="hsla(0, 100%, 65%, 0.7)" stroke-width="1.5"></path><path d="M706.52 357.44L706.52 357.44" stroke="hsla(0, 100%, 65%, 0.7)" stroke-width="1.5"></path><path d="M706.52 357.44L833.86 353.86" stroke="hsla(0, 100%, 65%, 0.7)" stroke-width="1.5"></path><path d="M706.52 357.44L711.73 538.24" stroke="hsla(0, 100%, 65%, 0.7)" stroke-width="1.5"></path><path d="M706.52 357.44L795.61 562.4" stroke="hsla(0, 100%, 65%, 0.7)" stroke-width="1.5"></path><path d="M706.52 357.44L982.82 407.81" stroke="hsla(0, 100%, 65%, 0.7)" stroke-width="1.5"></path><path d="M711.73 538.24L711.73 538.24" stroke="hsla(0, 100%, 65%, 0.7)" stroke-width="1.5"></path><path d="M711.73 538.24L795.61 562.4" stroke="hsla(0, 100%, 65%, 0.7)" stroke-width="1.5"></path><path d="M711.73 538.24L681.13 657.31" stroke="hsla(0, 100%, 65%, 0.7)" stroke-width="1.5"></path><path d="M711.73 538.24L843.4 659.16" stroke="hsla(0, 100%, 65%, 0.7)" stroke-width="1.5"></path><path d="M711.73 538.24L833.86 353.86" stroke="hsla(0, 100%, 65%, 0.7)" stroke-width="1.5"></path><path d="M681.13 657.31L681.13 657.31" stroke="hsla(0, 100%, 65%, 0.7)" stroke-width="1.5"></path><path d="M681.13 657.31L795.61 562.4" stroke="hsla(0, 100%, 65%, 0.7)" stroke-width="1.5"></path><path d="M681.13 657.31L843.4 659.16" stroke="hsla(0, 100%, 65%, 0.7)" stroke-width="1.5"></path><path d="M833.86 353.86L833.86 353.86" stroke="hsla(0, 100%, 65%, 0.7)" stroke-width="1.5"></path><path d="M833.86 353.86L982.82 407.81" stroke="hsla(0, 100%, 65%, 0.7)" stroke-width="1.5"></path><path d="M833.86 353.86L795.61 562.4" stroke="hsla(0, 100%, 65%, 0.7)" stroke-width="1.5"></path><path d="M833.86 353.86L993.32 547.17" stroke="hsla(0, 100%, 65%, 0.7)" stroke-width="1.5"></path><path d="M795.61 562.4L795.61 562.4" stroke="hsla(0, 100%, 65%, 0.7)" stroke-width="1.5"></path><path d="M795.61 562.4L843.4 659.16" stroke="hsla(0, 100%, 65%, 0.7)" stroke-width="1.5"></path><path d="M795.61 562.4L993.32 547.17" stroke="hsla(0, 100%, 65%, 0.7)" stroke-width="1.5"></path><path d="M843.4 659.16L843.4 659.16" stroke="hsla(0, 100%, 65%, 0.7)" stroke-width="1.5"></path><path d="M843.4 659.16L993.4 678.37" stroke="hsla(0, 100%, 65%, 0.7)" stroke-width="1.5"></path><path d="M982.82 407.81L982.82 407.81" stroke="hsla(0, 100%, 65%, 0.7)" stroke-width="1.5"></path><path d="M982.82 407.81L993.32 547.17" stroke="hsla(0, 100%, 65%, 0.7)" stroke-width="1.5"></path><path d="M982.82 407.81L1154.57 345.54" stroke="hsla(0, 100%, 65%, 0.7)" stroke-width="1.5"></path><path d="M982.82 407.81L1154 499.1" stroke="hsla(0, 100%, 65%, 0.7)" stroke-width="1.5"></path><path d="M993.32 547.17L993.32 547.17" stroke="hsla(0, 100%, 65%, 0.7)" stroke-width="1.5"></path><path d="M993.32 547.17L993.4 678.37" stroke="hsla(0, 100%, 65%, 0.7)" stroke-width="1.5"></path><path d="M993.32 547.17L1108.64 654.02" stroke="hsla(0, 100%, 65%, 0.7)" stroke-width="1.5"></path><path d="M993.32 547.17L1154 499.1" stroke="hsla(0, 100%, 65%, 0.7)" stroke-width="1.5"></path><path d="M993.4 678.37L993.4 678.37" stroke="hsla(0, 100%, 65%, 0.7)" stroke-width="1.5"></path><path d="M993.4 678.37L1108.64 654.02" stroke="hsla(0, 100%, 65%, 0.7)" stroke-width="1.5"></path><path d="M1152.3 -37.91L1152.3 -37.91" stroke="hsla(0, 100%, 65%, 0.7)" stroke-width="1.5"></path><path d="M1152.3 -37.91L1300.02 -44.71" stroke="hsla(0, 100%, 65%, 0.7)" stroke-width="1.5"></path><path d="M1152.3 -37.91L1299.65 110.33" stroke="hsla(0, 100%, 65%, 0.7)" stroke-width="1.5"></path><path d="M1154.57 345.54L1154.57 345.54" stroke="hsla(0, 100%, 65%, 0.7)" stroke-width="1.5"></path><path d="M1154.57 345.54L1243.36 256.03" stroke="hsla(0, 100%, 65%, 0.7)" stroke-width="1.5"></path><path d="M1154 499.1L1154 499.1" stroke="hsla(0, 100%, 65%, 0.7)" stroke-width="1.5"></path><path d="M1154 499.1L1288.02 508.11" stroke="hsla(0, 100%, 65%, 0.7)" stroke-width="1.5"></path><path d="M1154 499.1L1154.57 345.54" stroke="hsla(0, 100%, 65%, 0.7)" stroke-width="1.5"></path><path d="M1154 499.1L1108.64 654.02" stroke="hsla(0, 100%, 65%, 0.7)" stroke-width="1.5"></path><path d="M1154 499.1L1286.82 658.33" stroke="hsla(0, 100%, 65%, 0.7)" stroke-width="1.5"></path><path d="M1108.64 654.02L1108.64 654.02" stroke="hsla(0, 100%, 65%, 0.7)" stroke-width="1.5"></path><path d="M1300.02 -44.71L1300.02 -44.71" stroke="hsla(0, 100%, 65%, 0.7)" stroke-width="1.5"></path><path d="M1300.02 -44.71L1420.7 -105.72" stroke="hsla(0, 100%, 65%, 0.7)" stroke-width="1.5"></path><path d="M1300.02 -44.71L1299.65 110.33" stroke="hsla(0, 100%, 65%, 0.7)" stroke-width="1.5"></path><path d="M1300.02 -44.71L1437.3 89.45" stroke="hsla(0, 100%, 65%, 0.7)" stroke-width="1.5"></path><path d="M1300.02 -44.71L1539.29 -109" stroke="hsla(0, 100%, 65%, 0.7)" stroke-width="1.5"></path><path d="M1300.02 -44.71L1402.53 213.75" stroke="hsla(0, 100%, 65%, 0.7)" stroke-width="1.5"></path><path d="M1299.65 110.33L1299.65 110.33" stroke="hsla(0, 100%, 65%, 0.7)" stroke-width="1.5"></path><path d="M1299.65 110.33L1437.3 89.45" stroke="hsla(0, 100%, 65%, 0.7)" stroke-width="1.5"></path><path d="M1299.65 110.33L1402.53 213.75" stroke="hsla(0, 100%, 65%, 0.7)" stroke-width="1.5"></path><path d="M1243.36 256.03L1243.36 256.03" stroke="hsla(0, 100%, 65%, 0.7)" stroke-width="1.5"></path><path d="M1243.36 256.03L1299.65 110.33" stroke="hsla(0, 100%, 65%, 0.7)" stroke-width="1.5"></path><path d="M1243.36 256.03L1402.53 213.75" stroke="hsla(0, 100%, 65%, 0.7)" stroke-width="1.5"></path><path d="M1288.02 508.11L1288.02 508.11" stroke="hsla(0, 100%, 65%, 0.7)" stroke-width="1.5"></path><path d="M1288.02 508.11L1286.82 658.33" stroke="hsla(0, 100%, 65%, 0.7)" stroke-width="1.5"></path><path d="M1288.02 508.11L1442.21 526.03" stroke="hsla(0, 100%, 65%, 0.7)" stroke-width="1.5"></path><path d="M1286.82 658.33L1286.82 658.33" stroke="hsla(0, 100%, 65%, 0.7)" stroke-width="1.5"></path><path d="M1286.82 658.33L1387.81 710.19" stroke="hsla(0, 100%, 65%, 0.7)" stroke-width="1.5"></path><path d="M1286.82 658.33L1108.64 654.02" stroke="hsla(0, 100%, 65%, 0.7)" stroke-width="1.5"></path><path d="M1286.82 658.33L1442.21 526.03" stroke="hsla(0, 100%, 65%, 0.7)" stroke-width="1.5"></path><path d="M1286.82 658.33L1555.17 680.03" stroke="hsla(0, 100%, 65%, 0.7)" stroke-width="1.5"></path><path d="M1420.7 -105.72L1420.7 -105.72" stroke="hsla(0, 100%, 65%, 0.7)" stroke-width="1.5"></path><path d="M1420.7 -105.72L1539.29 -109" stroke="hsla(0, 100%, 65%, 0.7)" stroke-width="1.5"></path><path d="M1420.7 -105.72L1437.3 89.45" stroke="hsla(0, 100%, 65%, 0.7)" stroke-width="1.5"></path><path d="M1437.3 89.45L1437.3 89.45" stroke="hsla(0, 100%, 65%, 0.7)" stroke-width="1.5"></path><path d="M1437.3 89.45L1402.53 213.75" stroke="hsla(0, 100%, 65%, 0.7)" stroke-width="1.5"></path><path d="M1437.3 89.45L1579.25 105.47" stroke="hsla(0, 100%, 65%, 0.7)" stroke-width="1.5"></path><path d="M1402.53 213.75L1402.53 213.75" stroke="hsla(0, 100%, 65%, 0.7)" stroke-width="1.5"></path><path d="M1412.46 405.75L1412.46 405.75" stroke="hsla(0, 100%, 65%, 0.7)" stroke-width="1.5"></path><path d="M1412.46 405.75L1442.21 526.03" stroke="hsla(0, 100%, 65%, 0.7)" stroke-width="1.5"></path><path d="M1442.21 526.03L1442.21 526.03" stroke="hsla(0, 100%, 65%, 0.7)" stroke-width="1.5"></path><path d="M1442.21 526.03L1604.19 557.28" stroke="hsla(0, 100%, 65%, 0.7)" stroke-width="1.5"></path><path d="M1442.21 526.03L1555.17 680.03" stroke="hsla(0, 100%, 65%, 0.7)" stroke-width="1.5"></path><path d="M1442.21 526.03L1387.81 710.19" stroke="hsla(0, 100%, 65%, 0.7)" stroke-width="1.5"></path><path d="M1387.81 710.19L1387.81 710.19" stroke="hsla(0, 100%, 65%, 0.7)" stroke-width="1.5"></path><path d="M1387.81 710.19L1555.17 680.03" stroke="hsla(0, 100%, 65%, 0.7)" stroke-width="1.5"></path><path d="M1387.81 710.19L1288.02 508.11" stroke="hsla(0, 100%, 65%, 0.7)" stroke-width="1.5"></path><path d="M1387.81 710.19L1604.19 557.28" stroke="hsla(0, 100%, 65%, 0.7)" stroke-width="1.5"></path><path d="M1539.29 -109L1539.29 -109" stroke="hsla(0, 100%, 65%, 0.7)" stroke-width="1.5"></path><path d="M1539.29 -109L1579.25 105.47" stroke="hsla(0, 100%, 65%, 0.7)" stroke-width="1.5"></path><path d="M1579.25 105.47L1579.25 105.47" stroke="hsla(0, 100%, 65%, 0.7)" stroke-width="1.5"></path><path d="M1579.25 105.47L1607.72 216.72" stroke="hsla(0, 100%, 65%, 0.7)" stroke-width="1.5"></path><path d="M1579.25 105.47L1402.53 213.75" stroke="hsla(0, 100%, 65%, 0.7)" stroke-width="1.5"></path><path d="M1579.25 105.47L1569.67 354.6" stroke="hsla(0, 100%, 65%, 0.7)" stroke-width="1.5"></path><path d="M1607.72 216.72L1607.72 216.72" stroke="hsla(0, 100%, 65%, 0.7)" stroke-width="1.5"></path><path d="M1607.72 216.72L1569.67 354.6" stroke="hsla(0, 100%, 65%, 0.7)" stroke-width="1.5"></path><path d="M1607.72 216.72L1402.53 213.75" stroke="hsla(0, 100%, 65%, 0.7)" stroke-width="1.5"></path><path d="M1607.72 216.72L1437.3 89.45" stroke="hsla(0, 100%, 65%, 0.7)" stroke-width="1.5"></path><path d="M1607.72 216.72L1412.46 405.75" stroke="hsla(0, 100%, 65%, 0.7)" stroke-width="1.5"></path><path d="M1569.67 354.6L1569.67 354.6" stroke="hsla(0, 100%, 65%, 0.7)" stroke-width="1.5"></path><path d="M1569.67 354.6L1412.46 405.75" stroke="hsla(0, 100%, 65%, 0.7)" stroke-width="1.5"></path><path d="M1569.67 354.6L1604.19 557.28" stroke="hsla(0, 100%, 65%, 0.7)" stroke-width="1.5"></path><path d="M1569.67 354.6L1442.21 526.03" stroke="hsla(0, 100%, 65%, 0.7)" stroke-width="1.5"></path><path d="M1604.19 557.28L1604.19 557.28" stroke="hsla(0, 100%, 65%, 0.7)" stroke-width="1.5"></path><path d="M1604.19 557.28L1555.17 680.03" stroke="hsla(0, 100%, 65%, 0.7)" stroke-width="1.5"></path><path d="M1604.19 557.28L1412.46 405.75" stroke="hsla(0, 100%, 65%, 0.7)" stroke-width="1.5"></path><path d="M1555.17 680.03L1555.17 680.03" stroke="hsla(0, 100%, 65%, 0.7)" stroke-width="1.5"></path><circle r="25" cx="251.9" cy="702.52" fill="url(#SvgjsRadialGradient1019)"></circle><circle r="25" cx="388.67" cy="698.15" fill="url(#SvgjsRadialGradient1019)"></circle><circle r="25" cx="534.01" cy="648.71" fill="url(#SvgjsRadialGradient1019)"></circle><circle r="25" cx="1108.56" cy="220.61" fill="url(#SvgjsRadialGradient1019)"></circle><circle r="25" cx="1289.08" cy="341.54" fill="url(#SvgjsRadialGradient1019)"></circle><circle r="5" cx="-69.28" cy="559.73" fill="rgba(255, 166, 166, 0.85)"></circle><circle r="5" cx="68.07" cy="556.01" fill="rgba(255, 166, 166, 0.85)"></circle><circle r="5" cx="41.61" cy="660.4" fill="rgba(255, 166, 166, 0.85)"></circle><circle r="5" cx="188.49" cy="532.84" fill="rgba(255, 166, 166, 0.85)"></circle><circle r="5" cx="400.72" cy="513.78" fill="rgba(255, 166, 166, 0.85)"></circle><circle r="5" cx="706.52" cy="357.44" fill="rgba(255, 166, 166, 0.85)"></circle><circle r="5" cx="711.73" cy="538.24" fill="rgba(255, 166, 166, 0.85)"></circle><circle r="5" cx="681.13" cy="657.31" fill="rgba(255, 166, 166, 0.85)"></circle><circle r="5" cx="833.86" cy="353.86" fill="rgba(255, 166, 166, 0.85)"></circle><circle r="5" cx="795.61" cy="562.4" fill="rgba(255, 166, 166, 0.85)"></circle><circle r="5" cx="843.4" cy="659.16" fill="rgba(255, 166, 166, 0.85)"></circle><circle r="5" cx="982.82" cy="407.81" fill="rgba(255, 166, 166, 0.85)"></circle><circle r="5" cx="993.32" cy="547.17" fill="rgba(255, 166, 166, 0.85)"></circle><circle r="5" cx="993.4" cy="678.37" fill="rgba(255, 166, 166, 0.85)"></circle><circle r="5" cx="1152.3" cy="-37.91" fill="rgba(255, 166, 166, 0.85)"></circle><circle r="5" cx="1154.57" cy="345.54" fill="rgba(255, 166, 166, 0.85)"></circle><circle r="5" cx="1154" cy="499.1" fill="rgba(255, 166, 166, 0.85)"></circle><circle r="5" cx="1108.64" cy="654.02" fill="rgba(255, 166, 166, 0.85)"></circle><circle r="5" cx="1300.02" cy="-44.71" fill="rgba(255, 166, 166, 0.85)"></circle><circle r="5" cx="1299.65" cy="110.33" fill="rgba(255, 166, 166, 0.85)"></circle><circle r="5" cx="1243.36" cy="256.03" fill="rgba(255, 166, 166, 0.85)"></circle><circle r="5" cx="1288.02" cy="508.11" fill="rgba(255, 166, 166, 0.85)"></circle><circle r="5" cx="1286.82" cy="658.33" fill="rgba(255, 166, 166, 0.85)"></circle><circle r="5" cx="1420.7" cy="-105.72" fill="rgba(255, 166, 166, 0.85)"></circle><circle r="5" cx="1437.3" cy="89.45" fill="rgba(255, 166, 166, 0.85)"></circle><circle r="5" cx="1402.53" cy="213.75" fill="rgba(255, 166, 166, 0.85)"></circle><circle r="5" cx="1412.46" cy="405.75" fill="rgba(255, 166, 166, 0.85)"></circle><circle r="5" cx="1442.21" cy="526.03" fill="rgba(255, 166, 166, 0.85)"></circle><circle r="5" cx="1387.81" cy="710.19" fill="rgba(255, 166, 166, 0.85)"></circle><circle r="5" cx="1539.29" cy="-109" fill="rgba(255, 166, 166, 0.85)"></circle><circle r="5" cx="1579.25" cy="105.47" fill="rgba(255, 166, 166, 0.85)"></circle><circle r="5" cx="1607.72" cy="216.72" fill="rgba(255, 166, 166, 0.85)"></circle><circle r="5" cx="1569.67" cy="354.6" fill="rgba(255, 166, 166, 0.85)"></circle><circle r="5" cx="1604.19" cy="557.28" fill="rgba(255, 166, 166, 0.85)"></circle><circle r="5" cx="1555.17" cy="680.03" fill="rgba(255, 166, 166, 0.85)"></circle></g><defs><mask id="SvgjsMask1018"><rect width="1440" height="560" fill="#ffffff"></rect></mask><radialGradient id="SvgjsRadialGradient1019"><stop stop-color="#ffffff" offset="0.1"></stop><stop stop-color="rgba(255, 0, 0, 0.7)" offset="0.2"></stop><stop stop-color="rgba(255, 0, 0, 0)" offset="1"></stop></radialGradient></defs></svg>